<svg width="329" height="38" viewBox="0 0 329 38" fill="none" xmlns="http://www.w3.org/2000/svg">
<g clip-path="url(#clip0_1_9076)">
<path d="M10.8453 31.6844H4.00649L3.15201 37.7308H-0.000183105L5.23536 0.26622H10.0965L15.2777 37.7308H11.7511L10.8423 31.6844H10.8453ZM4.43524 28.4206H10.4196L9.35073 20.4988C8.44191 13.6477 7.80181 7.81298 7.42741 3.47851C7.10736 7.81298 6.51858 13.7022 5.55843 20.4988L4.43524 28.4206Z" fill="white"/>
<path d="M21.8507 18.572C22.5995 23.9773 23.1853 29.3825 23.5053 32.9699C23.8254 29.3855 24.4142 23.9773 25.1629 18.572L27.7264 0.26622H30.8786L25.643 37.7308H20.9419L15.7064 0.26622H19.2843L21.8477 18.569L21.8507 18.572Z" fill="white"/>
<path d="M42.0987 31.6844H35.2598L34.4054 37.7308H31.2532L36.4887 0.26622H41.3499L46.5311 37.7308H43.0045L42.0956 31.6844H42.0987ZM35.6886 28.4206H41.6729L40.6041 20.4988C39.6953 13.6477 39.0552 7.81298 38.6808 3.47851C38.3607 7.81298 37.7719 13.7022 36.8118 20.4988L35.6886 28.4206Z" fill="white"/>
<path d="M50.0576 0.26622H53.5842V34.4671H59.9942V37.7308H50.0576V0.26622Z" fill="white"/>
<path d="M62.6663 6.37013C62.6663 1.44583 63.8951 0 68.4906 0H70.9483C75.5438 0 76.7726 1.44583 76.7726 6.37013V31.6299C76.7726 36.5542 75.5438 38 70.9483 38H68.4906C63.8951 38 62.6663 36.5542 62.6663 31.6299V6.37013ZM73.1917 7.06583C73.1917 4.17719 73.0317 3.26674 70.4139 3.26674H69.025C66.4072 3.26674 66.2472 4.17719 66.2472 7.06583V30.9342C66.2472 33.8228 66.4072 34.7333 69.025 34.7333H70.4139C73.0317 34.7333 73.1917 33.8228 73.1917 30.9342V7.06583Z" fill="white"/>
<path d="M85.6404 13.0579C85.1059 10.8105 84.7315 8.72344 84.4115 6.68778C84.4658 8.72041 84.5172 10.8075 84.5172 13.1638V37.7308H81.4706V0.26622H86.0117L91.4073 23.333C91.9417 25.6348 92.3161 27.7219 92.6362 29.7546C92.5818 27.7219 92.4762 25.6348 92.4762 23.2786V0.26622H95.574V37.7308H91.6217L85.6373 13.0579H85.6404Z" fill="white"/>
<path d="M108.358 0.26622H110.016V36.288H116.909V37.7339H108.361V0.26622H108.358Z" fill="white"/>
<path d="M120.59 0.26622H122.247V37.7308H120.59V0.26622Z" fill="white"/>
<path d="M128.337 0.26622H134.856C138.808 0.26622 139.877 1.4973 139.877 5.7259V16.6997C139.877 20.9283 138.808 22.1594 134.856 22.1594H129.995V37.7339H128.337V0.26622ZM134.747 20.7105C137.954 20.7105 138.219 19.5853 138.219 16.1069V6.31573C138.219 2.83726 137.954 1.71205 134.747 1.71205H129.992V20.7105H134.747Z" fill="white"/>
<path d="M143.829 5.45968C143.829 1.23108 144.898 0 148.851 0H150.828C154.781 0 155.849 1.23108 155.849 5.45968V32.5403C155.849 36.7689 154.781 38 150.828 38H148.851C144.898 38 143.829 36.7689 143.829 32.5403V5.45968ZM154.195 6.04951C154.195 2.57104 153.98 1.44583 150.723 1.44583H148.959C145.701 1.44583 145.487 2.57104 145.487 6.04951V31.9505C145.487 35.429 145.701 36.5542 148.959 36.5542H150.723C153.98 36.5542 154.195 35.429 154.195 31.9505V6.04649V6.04951Z" fill="white"/>
<path d="M178.235 34.4671C177.755 36.6087 176.472 38 173.694 38H172.734C169.261 38 168.353 36.8748 168.353 33.1846V22.6948C168.353 19.3766 168.993 17.9308 171.185 17.4499C168.996 16.9689 168.353 15.4686 168.353 12.1505V5.7259C168.353 1.4973 169.421 0.26622 173.322 0.26622H178.024V1.71205H173.482C170.225 1.71205 170.01 2.83726 170.01 6.31573V12.096C170.01 15.5745 170.225 16.6997 173.482 16.6997H178.024V10.8135H179.572V16.6997H182.939V18.1455H179.572V30.9917C179.572 33.5083 179.733 35.7557 180.267 37.7339H178.664C178.398 36.9837 178.289 35.8071 178.235 34.4701V34.4671ZM170.007 32.4859C170.007 35.4834 170.222 36.6601 172.945 36.6601H174.334C176.952 36.6601 178.021 34.573 178.021 31.2004V18.1425H173.479C170.222 18.1425 170.007 19.2677 170.007 22.7462V32.4859Z" fill="white"/>
<path d="M202.809 31.0945H194.636L193.676 37.7308H192.232L197.734 0.26622H199.977L205.478 37.7308H203.821L202.806 31.0945H202.809ZM194.85 29.6487H202.598L200.675 16.3216C199.874 10.6472 199.126 5.61701 198.751 2.40775C198.377 5.62004 197.682 10.6502 196.828 16.3216L194.85 29.6487Z" fill="white"/>
<path d="M211.357 17.2865H217.982V18.7324H211.357V36.288H218.89V37.7339H209.703V0.26622H218.89V1.71205H211.357V17.2865Z" fill="white"/>
<path d="M232.408 27.9366C232.408 24.1375 231.979 23.0123 227.973 19.1588C223.111 14.5037 222.683 13.324 222.683 9.04402V5.45968C222.683 1.23108 223.752 0 227.704 0H229.093C233.045 0 234.063 1.23108 234.063 5.45968V12.6858H232.514V6.04649C232.514 2.56802 232.299 1.44281 229.041 1.44281H227.813C224.555 1.44281 224.34 2.56802 224.34 6.04649V8.98957C224.34 12.7887 224.769 13.9139 228.776 17.7674C233.637 22.4225 234.066 23.6022 234.066 27.8822V32.5373C234.066 36.7659 232.997 37.997 229.096 37.997H227.653C223.752 37.997 222.683 36.7659 222.683 32.5373V24.2404H224.232V31.9475C224.232 35.4259 224.446 36.5511 227.704 36.5511H228.933C232.191 36.5511 232.405 35.4259 232.405 31.9475V27.9336L232.408 27.9366Z" fill="white"/>
<path d="M240.956 37.7308V1.71205H236.735V0.26622H246.831V1.71205H242.61V37.7308H240.953H240.956Z" fill="white"/>
<path d="M250.358 37.7308V0.26622H252.016V17.2865H260.723V0.26622H262.378V37.7308H260.723V18.7324H252.016V37.7308H250.358Z" fill="white"/>
<path d="M270.123 17.2865H276.747V18.7324H270.123V36.288H277.656V37.7339H268.468V0.26622H277.656V1.71205H270.123V17.2865Z" fill="white"/>
<path d="M283.96 37.7308V1.71205H279.739V0.26622H289.836V1.71205H285.615V37.7308H283.957H283.96Z" fill="white"/>
<path d="M293.362 0.26622H295.02V37.7308H293.362V0.26622Z" fill="white"/>
<path d="M302.39 31.9505C302.39 35.429 302.605 36.5542 305.863 36.5542H307.626C310.884 36.5542 311.098 35.429 311.098 31.9505V23.1727H312.647V32.5373C312.647 36.7659 311.633 37.997 307.677 37.997H305.754C301.802 37.997 300.733 36.7659 300.733 32.5373V5.45968C300.733 1.23108 301.802 0 305.754 0H307.677C311.629 0 312.647 1.23108 312.647 5.45968V13.2212H311.098V6.04649C311.098 2.56802 310.884 1.44281 307.626 1.44281H305.863C302.605 1.44281 302.39 2.56802 302.39 6.04649V31.9505Z" fill="white"/>
<path d="M327.128 27.9366C327.128 24.1375 326.699 23.0123 322.692 19.1588C317.831 14.5037 317.402 13.324 317.402 9.04402V5.45968C317.402 1.23108 318.471 0 322.424 0H323.812C327.765 0 328.782 1.23108 328.782 5.45968V12.6858H327.233V6.04649C327.233 2.56802 327.019 1.44281 323.761 1.44281H322.532C319.274 1.44281 319.06 2.56802 319.06 6.04649V8.98957C319.06 12.7887 319.489 13.9139 323.495 17.7674C328.357 22.4225 328.785 23.6022 328.785 27.8822V32.5373C328.785 36.7659 327.716 37.997 323.815 37.997H322.372C318.471 37.997 317.402 36.7659 317.402 32.5373V24.2404H318.951V31.9475C318.951 35.4259 319.166 36.5511 322.424 36.5511H323.652C326.91 36.5511 327.125 35.4259 327.125 31.9475V27.9336L327.128 27.9366Z" fill="white"/>
</g>
<defs>
<clipPath id="clip0_1_9076">
<rect width="328.783" height="38" fill="white"/>
</clipPath>
</defs>
</svg>
