<svg width="13" height="24" viewBox="0 0 13 24" fill="none" xmlns="http://www.w3.org/2000/svg">
<path d="M12.217 0.165119V3.85807C12.0446 3.87005 11.8781 3.89202 11.7097 3.89402C11.1001 3.90001 10.4906 3.89402 9.88099 3.908C9.65841 3.912 9.43183 3.93796 9.21727 3.99189C8.46934 4.17963 8.04625 4.63701 7.99411 5.39996C7.94398 6.13096 7.96203 6.86796 7.952 7.60295C7.94799 7.9365 7.952 8.26804 7.952 8.65152C9.35764 8.74339 10.7131 8.63953 12.1168 8.71144C11.9383 10.1055 11.7639 11.4577 11.5834 12.8558H7.96604C7.91792 16.4748 7.98409 20.042 7.93195 23.633H3.68498C3.6168 22.4447 3.66493 21.2543 3.6549 20.0659C3.64487 18.8835 3.6549 17.7012 3.6549 16.5188C3.6549 15.3244 3.6549 14.128 3.6549 12.8658C3.02527 12.8158 2.43776 12.8498 1.85224 12.8418C1.26071 12.8338 0.669186 12.8418 0.0215123 12.8418C-0.0226016 11.4577 0.017502 10.1095 0.00146053 8.71943C0.216015 8.70944 0.386455 8.69346 0.558901 8.69346C1.42514 8.69146 2.29138 8.69346 3.15762 8.68947C3.62683 8.68747 3.64488 8.6675 3.64889 8.20213C3.65691 7.17953 3.64688 6.15693 3.66493 5.13433C3.68097 4.21159 3.88951 3.3268 4.33265 2.51391C5.14876 1.00797 6.47419 0.268977 8.13247 0.0712473C9.47795 -0.0905316 10.8194 0.0592637 12.217 0.165119Z" fill="white"/>
</svg>
