<svg width="20" height="20" viewBox="0 0 20 20" fill="none" xmlns="http://www.w3.org/2000/svg">
<path d="M0 9.58303C0.0521347 8.05113 0.0641609 6.51723 0.170436 4.98732C0.27671 3.45741 0.872253 2.13322 2.1295 1.16854C2.9436 0.543391 3.87601 0.197863 4.88462 0.121967C6.05163 0.0340869 7.22667 0.0141142 8.3977 0.00412785C10.054 -0.00785577 11.7103 0.00812236 13.3665 0.0280951C14.2488 0.0380814 15.1191 0.139942 15.9552 0.447522C17.405 0.980793 18.3855 1.97943 18.9249 3.41547C19.1896 4.1205 19.3279 4.8535 19.332 5.60048C19.346 8.22889 19.346 10.8573 19.332 13.4857C19.3279 14.1708 19.2257 14.8518 19.0091 15.5109C18.3775 17.4443 17.022 18.5508 15.0569 18.9622C14.1766 19.146 13.2803 19.15 12.386 19.15C10.2605 19.15 8.13302 19.148 6.00753 19.126C5.2616 19.118 4.51968 19.0341 3.79982 18.8044C1.78662 18.1673 0.597543 16.7872 0.262678 14.74C0.0882275 13.6655 0.0982558 12.559 0.0521367 11.4665C0.0240641 10.8393 0.0481224 10.2102 0.0481224 9.58303H0.00200714H0ZM1.7024 9.56905C1.74451 10.9991 1.75052 12.4591 1.84276 13.9151C1.96508 15.8625 3.08397 17.0728 4.97485 17.3464C5.6105 17.4383 6.26017 17.4543 6.90384 17.4603C8.59019 17.4782 10.2746 17.4742 11.9609 17.4703C12.9134 17.4683 13.8698 17.4902 14.8043 17.2805C16.0876 16.9929 17.01 16.2619 17.3829 14.9797C17.5433 14.4264 17.6296 13.8352 17.6436 13.258C17.6897 11.3167 17.6997 9.37532 17.6937 7.43397C17.6917 6.58913 17.6556 5.74029 17.5614 4.90143C17.3849 3.33957 16.4465 2.26703 14.9607 1.89554C14.5235 1.78569 14.0643 1.72178 13.6152 1.71579C11.4616 1.68583 9.30604 1.67385 7.15248 1.67784C6.4647 1.67784 5.77492 1.71179 5.09116 1.78769C3.92615 1.91552 2.96166 2.41084 2.35008 3.45341C2.01922 4.01864 1.85881 4.64379 1.83274 5.2909C1.77659 6.70497 1.7445 8.12103 1.70039 9.56706L1.7024 9.56905Z" fill="white"/>
<path d="M9.74081 4.67143C12.4438 4.67542 14.6736 6.8904 14.6736 9.57273C14.6736 12.313 12.4518 14.508 9.67464 14.486C7.0278 14.466 4.76194 12.335 4.77397 9.56274C4.786 6.82648 6.96765 4.66744 9.74081 4.67143ZM6.46635 9.55476C6.45632 11.3403 7.90407 12.8083 9.68066 12.8143C11.4833 12.8203 12.9732 11.3643 12.9852 9.58072C12.9972 7.84509 11.5254 6.35912 9.78092 6.34914C7.9542 6.33715 6.47838 7.7652 6.46635 9.55476Z" fill="white"/>
<path d="M14.8894 5.56492C14.2417 5.56092 13.7685 5.07159 13.7765 4.41649C13.7845 3.78335 14.2577 3.32997 14.9054 3.33597C15.5491 3.34196 16.0444 3.84926 16.0283 4.4844C16.0123 5.10754 15.525 5.57091 14.8894 5.56692V5.56492Z" fill="white"/>
</svg>
