<svg width="22" height="18" viewBox="0 0 22 18" fill="none" xmlns="http://www.w3.org/2000/svg">
<path d="M1.17905 0.904056C2.9797 2.97522 5.13326 4.3833 7.71995 5.10631C8.65436 5.36795 9.60281 5.57168 10.6134 5.53173C10.5954 5.17022 10.5693 4.85665 10.5673 4.54108C10.5513 1.97659 12.6206 -0.0586283 15.1953 0.0012898C16.2901 0.0272543 17.2746 0.392755 18.0847 1.12975C18.3614 1.3814 18.6061 1.44731 18.9409 1.32348C19.6889 1.04786 20.4388 0.782222 21.2208 0.500607C20.9241 1.41935 20.3005 2.10641 19.5605 2.73356C20.3125 2.76351 20.9842 2.47191 21.7522 2.2582C21.678 2.40001 21.6439 2.49189 21.5858 2.56778C21.1246 3.18694 20.5872 3.73419 19.9676 4.19556C19.737 4.36732 19.6528 4.56106 19.6568 4.84467C19.6849 7.9644 18.6963 10.7446 16.7653 13.1833C14.8744 15.568 12.4121 17.048 9.41433 17.6372C6.64718 18.1804 3.96424 17.9208 1.37957 16.7863C0.906343 16.5786 0.455176 16.321 0 16.0334C2.34807 16.1153 4.45351 15.5041 6.31432 14.0621C5.06308 13.8743 3.96224 13.4269 3.11405 12.4802C2.72905 12.0508 2.39619 11.5894 2.25382 10.9803C2.86139 10.9803 3.45092 11.0662 4.11463 10.7826C2.707 10.3551 1.67633 9.59817 1.0447 8.36785C0.735903 7.76667 0.571479 7.12555 0.575489 6.40653C1.20712 6.64221 1.79263 6.88588 2.46437 6.82396C1.92698 6.31466 1.41766 5.79936 1.08681 5.13827C0.757958 4.48316 0.581503 3.79211 0.589524 3.0631C0.597544 2.32411 0.749938 1.61109 1.18105 0.904056H1.17905Z" fill="white"/>
</svg>
