<svg width="27" height="19" viewBox="0 0 27 19" fill="none" xmlns="http://www.w3.org/2000/svg">
<path d="M12.5684 18.3216C9.80926 18.2437 7.51733 18.1958 5.22541 18.1039C4.47748 18.074 3.72554 17.9741 2.98964 17.8363C1.6963 17.5926 0.924292 16.7638 0.547318 15.5314C0.294665 14.7026 0.176359 13.8517 0.146281 12.9869C0.0981569 11.6308 -0.0161326 10.2746 0.00191407 8.91847C0.0239711 7.32465 0.124226 5.72883 0.260578 4.13901C0.312713 3.52984 0.513239 2.92267 0.719772 2.33947C1.11078 1.23298 1.95897 0.60983 3.08388 0.392128C3.72553 0.268297 4.38725 0.232346 5.04094 0.20039C8.14897 0.054589 11.259 -0.0372853 14.369 0.0146438C16.5968 0.0525919 18.8245 0.126491 21.0523 0.202387C21.6438 0.22236 22.2374 0.274289 22.8209 0.370158C24.2025 0.595849 25.0707 1.40874 25.4958 2.73892C25.8126 3.72557 25.9069 4.74218 25.949 5.76079C26.0171 7.40454 26.0693 9.05029 26.0412 10.694C26.0211 11.9363 25.9028 13.1806 25.7585 14.417C25.6923 14.9782 25.5038 15.5374 25.2953 16.0687C24.8722 17.1412 24.024 17.7364 22.9091 17.9202C22.1993 18.038 21.4754 18.076 20.7555 18.1119C19.6667 18.1658 18.5779 18.1958 17.4871 18.2198C15.6924 18.2617 13.8958 18.2937 12.5664 18.3196L12.5684 18.3216ZM17.2064 9.06028C16.6931 8.64684 10.6795 5.56306 10.3126 5.51912C10.3005 5.62697 10.2785 5.73483 10.2785 5.84268C10.2785 7.97976 10.2785 10.1188 10.2785 12.2559C10.2785 12.4037 10.3085 12.5495 10.3326 12.7752C12.6707 11.5129 14.9265 10.2926 17.2044 9.06228L17.2064 9.06028Z" fill="white"/>
</svg>
